<mxfile modified="2019-11-20T07:19:56.222Z" host="www.draw.io" agent="Mozilla/5.0 (Windows NT 10.0; Win64; x64) AppleWebKit/537.36 (KHTML, like Gecko) Chrome/78.0.3904.108 Safari/537.36" etag="aoj6nJ5ukaFRrYAavs4o" version="12.2.7" type="github" pages="1">
  <diagram id="WI9T0HZ2pTsCkuznbFz-" name="Page-1">
    <mxGraphModel dx="1391" dy="805" grid="1" gridSize="10" guides="1" tooltips="1" connect="1" arrows="1" fold="1" page="1" pageScale="1" pageWidth="1169" pageHeight="827" math="0" shadow="0">
      <root>
        <mxCell id="0"/>
        <mxCell id="1" parent="0"/>
        <mxCell id="AcxdMaKK0mU5kZiv2lnr-4" value="KPMG TW VNET&lt;br&gt;" style="rounded=0;whiteSpace=wrap;html=1;fillColor=#f5f5f5;strokeColor=none;fontColor=#333333;verticalAlign=top;direction=south;" parent="1" vertex="1">
          <mxGeometry x="230" y="362" width="550" height="339" as="geometry"/>
        </mxCell>
        <mxCell id="AcxdMaKK0mU5kZiv2lnr-5" value="Preview&lt;br&gt;Monitoring&lt;br&gt;" style="aspect=fixed;html=1;perimeter=none;align=center;shadow=0;dashed=0;image;fontSize=12;image=img/lib/mscae/TaskVM.svg;" parent="1" vertex="1">
          <mxGeometry x="340" y="20" width="63" height="60" as="geometry"/>
        </mxCell>
        <mxCell id="lvaCASJLjp-fSjR-ahG0-18" value="" style="edgeStyle=orthogonalEdgeStyle;rounded=0;orthogonalLoop=1;jettySize=auto;html=1;entryX=-0.078;entryY=0.5;entryDx=0;entryDy=0;entryPerimeter=0;" edge="1" parent="1" source="AcxdMaKK0mU5kZiv2lnr-6" target="lvaCASJLjp-fSjR-ahG0-8">
          <mxGeometry relative="1" as="geometry">
            <mxPoint x="363.5" y="606" as="targetPoint"/>
          </mxGeometry>
        </mxCell>
        <mxCell id="AcxdMaKK0mU5kZiv2lnr-6" value="ApplyAnywhere&lt;br&gt;Front end" style="aspect=fixed;html=1;perimeter=none;align=center;shadow=0;dashed=0;image;fontSize=12;image=img/lib/mscae/WebApp_WebJobs.svg;labelBackgroundColor=none;" parent="1" vertex="1">
          <mxGeometry x="331.5" y="430" width="64" height="64" as="geometry"/>
        </mxCell>
        <mxCell id="AcxdMaKK0mU5kZiv2lnr-9" value="Azure Blob&lt;br&gt;Storage&lt;br&gt;" style="aspect=fixed;html=1;perimeter=none;align=center;shadow=0;dashed=0;image;fontSize=12;image=img/lib/mscae/BlobBlock.svg;labelBackgroundColor=none;" parent="1" vertex="1">
          <mxGeometry x="341" y="550" width="62" height="53" as="geometry"/>
        </mxCell>
        <mxCell id="AcxdMaKK0mU5kZiv2lnr-10" value="Multi-Protocol&lt;br&gt;Dynamic &lt;br&gt;Packaging/&lt;br&gt;Multi-DRM&lt;br&gt;" style="aspect=fixed;html=1;perimeter=none;align=center;shadow=0;dashed=0;image;fontSize=12;image=img/lib/mscae/VPN_Gateway.svg;" parent="1" vertex="1">
          <mxGeometry x="650" y="197.5" width="45" height="50" as="geometry"/>
        </mxCell>
        <mxCell id="AcxdMaKK0mU5kZiv2lnr-11" value="Azure CDN" style="aspect=fixed;html=1;perimeter=none;align=center;shadow=0;dashed=0;image;fontSize=12;image=img/lib/mscae/Content_Delivery_Network.svg;" parent="1" vertex="1">
          <mxGeometry x="763" y="202.00000000000003" width="96" height="44" as="geometry"/>
        </mxCell>
        <mxCell id="AcxdMaKK0mU5kZiv2lnr-12" value="Azure Media&lt;br&gt;Player in Browser&lt;br&gt;" style="aspect=fixed;html=1;perimeter=none;align=center;shadow=0;dashed=0;image;fontSize=12;image=img/lib/mscae/Browser.svg;spacingTop=5;" parent="1" vertex="1">
          <mxGeometry x="559.2499999999997" y="29" width="50" height="42.5" as="geometry"/>
        </mxCell>
        <mxCell id="AcxdMaKK0mU5kZiv2lnr-13" value="Azure Media Player&lt;br&gt;in Mobile App&lt;br&gt;" style="aspect=fixed;html=1;perimeter=none;align=center;shadow=0;dashed=0;image;fontSize=12;image=img/lib/mscae/App_Service_Mobile_App.svg;" parent="1" vertex="1">
          <mxGeometry x="59.999999999999886" y="373.5" width="34.5" height="50" as="geometry"/>
        </mxCell>
        <mxCell id="AcxdMaKK0mU5kZiv2lnr-14" value="Cloud DRM&lt;br&gt;License / Key&lt;br&gt;Delivery Service&lt;br&gt;" style="aspect=fixed;html=1;perimeter=none;align=center;shadow=0;dashed=0;image;fontSize=12;image=img/lib/mscae/KeyVault.svg;spacingTop=3;" parent="1" vertex="1">
          <mxGeometry x="990" y="179" width="45" height="50" as="geometry"/>
        </mxCell>
        <mxCell id="lvaCASJLjp-fSjR-ahG0-5" value="k2 Blackpearl&lt;br&gt;Workspace" style="aspect=fixed;html=1;points=[];align=center;image;fontSize=12;image=img/lib/mscae/VirtualMachineWindows.svg;labelBackgroundColor=none;" vertex="1" parent="1">
          <mxGeometry x="625" y="439" width="50" height="46" as="geometry"/>
        </mxCell>
        <mxCell id="lvaCASJLjp-fSjR-ahG0-14" value="" style="edgeStyle=orthogonalEdgeStyle;rounded=0;orthogonalLoop=1;jettySize=auto;html=1;" edge="1" parent="1" source="lvaCASJLjp-fSjR-ahG0-8" target="lvaCASJLjp-fSjR-ahG0-5">
          <mxGeometry relative="1" as="geometry">
            <mxPoint x="512" y="606" as="targetPoint"/>
          </mxGeometry>
        </mxCell>
        <mxCell id="lvaCASJLjp-fSjR-ahG0-8" value="KpmgWorkFlow&lt;br&gt;Web Api" style="aspect=fixed;html=1;perimeter=none;align=center;shadow=0;dashed=0;image;fontSize=12;image=img/lib/mscae/WebApp_WebJobs.svg;labelBackgroundColor=none;" vertex="1" parent="1">
          <mxGeometry x="480" y="430" width="64" height="64" as="geometry"/>
        </mxCell>
        <mxCell id="lvaCASJLjp-fSjR-ahG0-19" value="K2 Blackpear&lt;br&gt;SQL Server" style="aspect=fixed;html=1;points=[];align=center;image;fontSize=12;image=img/lib/mscae/SQL_Servers.svg;labelBackgroundColor=none;" vertex="1" parent="1">
          <mxGeometry x="625" y="553" width="50" height="50" as="geometry"/>
        </mxCell>
        <mxCell id="lvaCASJLjp-fSjR-ahG0-20" value="KpmgWorkFlow&lt;br&gt;SQL Database" style="aspect=fixed;html=1;points=[];align=center;image;fontSize=12;image=img/lib/mscae/dep/SQL_Server_Stretch_DB.svg;labelBackgroundColor=none;" vertex="1" parent="1">
          <mxGeometry x="487" y="553" width="50" height="50" as="geometry"/>
        </mxCell>
        <mxCell id="lvaCASJLjp-fSjR-ahG0-21" value="" style="aspect=fixed;html=1;points=[];align=center;image;fontSize=12;image=img/lib/mscae/Active_Directory.svg;labelBackgroundColor=none;" vertex="1" parent="1">
          <mxGeometry x="280" y="248" width="50" height="50" as="geometry"/>
        </mxCell>
        <mxCell id="lvaCASJLjp-fSjR-ahG0-22" value="" style="aspect=fixed;html=1;points=[];align=center;image;fontSize=12;image=img/lib/mscae/Person.svg;labelBackgroundColor=none;" vertex="1" parent="1">
          <mxGeometry x="59" y="620" width="37" height="50" as="geometry"/>
        </mxCell>
        <mxCell id="lvaCASJLjp-fSjR-ahG0-23" value="App&amp;nbsp;" style="aspect=fixed;html=1;points=[];align=center;image;fontSize=12;image=img/lib/mscae/Local_Network_Gateways.svg;labelBackgroundColor=none;" vertex="1" parent="1">
          <mxGeometry x="205" y="460" width="50" height="50" as="geometry"/>
        </mxCell>
        <mxCell id="lvaCASJLjp-fSjR-ahG0-24" value="" style="aspect=fixed;html=1;points=[];align=center;image;fontSize=12;image=img/lib/mscae/App_Service.svg;labelBackgroundColor=none;" vertex="1" parent="1">
          <mxGeometry x="430" y="362" width="27" height="27" as="geometry"/>
        </mxCell>
      </root>
    </mxGraphModel>
  </diagram>
</mxfile>
